PathFileType	4	(X/Y/Z)	/home/abdul/Desktop/myosuite/custom_workspace/IK/output/S3_12_1.trc
DataRate	CameraRate	NumFrames	NumMarkers	Units	OrigDataRate	OrigDataStartFrame	OrigNumFrames
200.0	200.0	61	3	mm	200.0	688	786
Frame#	Time	V_Shoulder			V_Elbow			V_Wrist		
		X1	Y1	Z1	X2	Y2	Z2	X3	Y3	Z3

688	3.435	-128.15868484018065	636.4207871746951	309.2768514284046	-321.08266625342196	456.70184482389084	66.34533931098058	-121.51927160858233	218.38939484618655	36.90212690792754
689	3.44	-128.14888828160454	636.4994387657699	309.27457437554403	-321.07216253472956	456.74593141319644	66.33407159975593	-121.5375802174674	218.46300870319095	36.77376733004196
690	3.445	-128.13843458308142	636.5780571310997	309.2730272944296	-321.0649142301959	456.79004986852465	66.32655295580162	-121.56680024695416	218.53301589040652	36.65977864103873
691	3.45	-128.12729811223878	636.6566286540173	309.27224142284877	-321.0611092847872	456.83434086334785	66.3228443889666	-121.60747360369236	218.5995838771302	36.56040035922487
692	3.455	-128.1154535455154	636.7351445378209	309.2722471584427	-321.0609332236325	456.87895047038455	66.32300209315187	-121.66013636550761	218.66289208855827	36.475858978985585
693	3.46	-128.10287603158068	636.8136005997126	309.273073931247	-321.06456834860546	456.9240294122575	66.32707718658177	-121.72531690822854	218.72313050659503	36.40636681291431
694	3.465	-128.08954135453715	636.8919970451789	309.27475007763616	-321.07219292870775	456.9697322845812	66.33511545847381	-121.80353397034068	218.78049825813855	36.35212083983145
695	3.47	-128.07542609626788	636.9703382235707	309.27730271600706	-321.08398038720486	457.0162167542878	66.34715712285805	-121.89529466027994	218.83520219758307	36.31330156293746
696	3.475	-128.0605077972813	637.0486323657365	309.2807576245397	-321.1000984885664	457.06364273615054	66.36323658032421	-122.0010924118194	218.88745549017585	36.29007188248753
697	3.48	-128.04476511540173	637.1268913046456	309.2851391213837	-321.1207085283562	457.1121715506042	66.38338218849935	-122.12140489365656	218.93747620273325	36.28257598749246
698	3.485	-128.0281779816499	637.2051301800399	309.2904699476243	-321.1459645293037	457.1619650660996	66.40761604208265	-122.25669187996445	218.98548590806087	36.29093827104122
699	3.49	-128.01072775265808	637.2833671282253	309.2967711533941	-321.1760124468639	457.2131848293576	66.4359537632852	-122.4073930893285	219.03170830923213	36.31526227390746
700	3.495	-127.99239735896448	637.3616229582143	309.3040619874951	-321.2109893876411	457.2659911870049	66.4684043035423	-122.57392600014387	219.07636788966903	36.355629661143105
701	3.5	-127.97317144853672	637.4399208155012	309.31235979090957	-321.2510228441062	457.32054240218656	66.50496975738174	-122.75668365118986	219.11968859472967	36.41209923637961
702	3.505	-127.95303652488023	637.5182858348422	309.3216798945776	-321.29622994908505	457.3769937698513	66.5456451893459	-122.9560324367238	219.1618925502545	36.48470599855081
703	3.51	-127.93198107909684	637.596744783482	309.33203552182823	-321.34671675352445	457.4354967344924	66.59041847487534	-123.17230990603949	219.20319882324654	36.57346024572292
704	3.515	-127.90999571526982	637.6753256963424	309.3434376958483	-321.40257753106283	457.4961980142069	66.63927015606893	-123.40582257800867	219.24382222957405	36.67834673066761
705	3.52	-127.88707326856657	637.7540575047617	309.3558951525817	-321.4638941129383	457.5592387349999	66.6921733132384	-123.65684378166175	219.28397219327917	36.799323872745006
706	3.525	-127.86320891546727	637.8329696604281	309.3694142594477	-321.5307352567545	457.6247535793115	66.74909345317363	-123.92561153435909	219.3238516617644	36.93632303057617
707	3.53	-127.83840027554653	637.9120917562155	309.3839989402692	-321.60315605259893	457.69286995278264	66.80998841503055	-124.21232646955221	219.36365608080507	37.08924783988083
708	3.535	-127.8126475042585	637.9914531456795	309.3996506067979	-321.6811973699655	457.76370717329416	66.87480829474214	-124.5171498265243	219.40357243300838	37.25797362073689
709	3.54	-127.78595337619952	638.0710825630173	309.4163680972218	-321.76488534887227	457.8373756863219	66.94349538883928	-124.8402015148302	219.44377834300326	37.44234685838522
710	3.545	-127.75832335835126	638.151007745335	309.4341476220314	-321.8542309384843	457.9139763106368	67.01598415854664	-125.1815582664178	219.48444125230844	37.64218476155763
711	3.55	-127.72976567283668	638.2312550590998	309.4529827176168	-321.94922948645535	457.99359951834947	67.09220121499455	-125.54125188860154	219.525717666487	37.85727490214845
712	3.555	-127.70029134875335	638.3118491326728	309.4728642079555	-322.04986038208256	458.0763247532459	67.17206532635596	-125.91926763116803	219.5677524768533	38.087374939882196
713	3.56	-127.6699142626854	638.3928124968467	309.49378017474214	-322.1560867562315	458.1622197913002	67.25548744768108	-126.31554268091887	219.61067835865924	38.332212435451154
714	3.565	-127.6386511675322	638.4741652353081	309.51571593629285	-322.26785524082953	458.2513401471508	67.34237077415982	-126.7299647968922	219.65461524734602	38.591484755408615
715	3.57	-127.60652170933183	638.5559246469556	309.53865403554533	-322.3850957905472	458.34372853022535	67.43261081849336	-127.16237109934784	219.69966989410955	38.864859071905514
716	3.575	-127.5735484318006	638.6381049219873	309.5625742374529	-322.50772156908715	458.439414354062	67.52609551300179	-127.61254702534728	219.7459355016926	39.15197246015027
717	3.58	-127.53975676835425	638.720716833658	309.58745353605076	-322.6356289022788	458.53841330222417	67.62270533703332	-128.08022546340803	219.79349144098063	39.45243209625353
718	3.585	-127.50517502142311	638.8037674475771	309.6132661714505	-322.7686972999367	458.6407269540283	67.72231347017407	-128.5650860792571	219.84240304864664	39.76581555788983
719	3.59	-127.46983432892296	638.88725985038	309.63998365698785	-322.9067895481785	458.7463424731058	67.82478597168318	-129.06675484415206	219.8927215057605	40.09167122996751
720	3.595	-127.43376861779245	638.9711928995572	309.6675748167236	-323.0497518736168	458.855232361601	67.92998198649894	-129.58480377657733	219.94448379694794	40.42951881724332
721	3.6	-127.39701454456296	639.0555609961704	309.6960058334626	-323.1974141805401	458.9673542825601	68.03775397807478	-130.11875090736132	219.99771274935745	40.77884996554964
722	3.605	-127.35961142297761	639.1403538821099	309.72524030742346	-323.3495903618766	459.08265095280245	68.147947988212	-130.6680604773921	220.0524171503669	41.139128993017266
723	3.61	-127.3216011387342	639.2255564634769	309.7552393256506	-323.50607868440284	459.20105010827734	68.26040392395733	-131.23214337614573	220.10859194263546	41.50979373237457
724	3.615	-127.2830280514811	639.3111486615741	309.7859615422247	-323.6666622483042	459.32246454359745	68.37495587152846	-131.81035782817588	220.1662184947818	41.89025648508213
725	3.62	-127.24393888425435	639.397105292899	309.81736326928063	-323.8311095208295	459.44679222711295	68.49143243712041	-132.40201033355734	220.22526494564428	42.27990508771935
726	3.625	-127.20438260060138	639.48339597941	309.84939857880005	-323.9991749434033	459.5739164925392	68.60965711432866	-133.00635686702802	220.28568661975498	42.67810409067423
727	3.63	-127.1644102696967	639.569985090225	309.88201941509584	-324.1705996111674	459.7037063077803	68.72944867780323	-133.6226043392428	220.34742651133692	43.08419604879805
728	3.635	-127.12407491981351	639.6568317157726	309.9151757178586	-324.3451120235263	459.836016621209	68.85062160262083	-134.2499123221429	220.41041583381158	43.49750292327046
729	3.64	-127.0834313805753	639.743889675276	309.9488155555798	-324.52242890386253	459.9706887852551	68.9729865087293	-134.88739503896207	220.474574631486	43.91732759347847
730	3.645	-127.04253611447082	639.8311075582961	309.98288526911693	-324.7022560861769	460.10755105674355	69.09635062968262	-135.5341236178464	220.53981244977288	44.342955477240935
731	3.65	-127.00144703817523	639.9184288008977	310.0173296251057	-324.88428946599595	460.24641917299095	69.22051830474281	-136.18912860646108	220.60602905998718	44.77365625721017
732	3.655	-126.9602233342787	640.005791796831	310.0520919788712	-325.06821601247407	460.38709700223274	69.34529149328125	-136.85140274330917	220.67311523446102	45.208685710752015
733	3.66	-126.91892525408173	640.0931300439426	310.0871144464306	-325.25371483820516	460.5293772665006	69.47047031026321	-137.51990397979984	220.74095356742305	45.64728764004595
734	3.665	-126.87761391217339	640.1803723258346	310.1223380851183	-325.44045832285576	460.67304233462255	69.5958535814496	-138.19355874538755	220.80941933680845	46.08869589855804
735	3.67	-126.83635107356349	640.2674429286	310.1577030823094	-325.62811328633063	460.8178650825561	69.72123941679695	-138.87126544637061	220.87838140189737	46.53213650942165
736	3.675	-126.79519893419514	640.3542618922585	310.1931489516514	-325.8163422067949	460.96360981781095	69.84642580038307	-139.55189818719685	220.94770313142925	46.9768298706166
737	3.68	-126.75421989571386	640.4407452962997	310.2286147361593	-326.00480447850373	461.11003326426	69.97121119503132	-140.23431070138656	221.01724335661135	47.42199304116818
738	3.685	-126.71347633542139	640.526805578535	310.2640392174651	-326.19315770403205	461.25688560318974	70.09539515965257	-140.91734047746232	221.08685734323325	47.866842101895315
739	3.69	-126.67303037238831	640.6123518862299	310.2993611304553	-326.3810590151577	461.40391156599867	70.21877897717079	-141.5998130635795	221.15639777692098	48.310594583526836
740	3.695	-126.63294363074465	640.6972904582734	310.3345193824712	-326.56816641633435	461.5508515735196	70.34116629074737	-142.2805465328951	221.22571575541485	48.752471954278185
741	3.7	-126.59327700120927	640.7815250369049	310.36945327619117	-326.7541401443971	461.69744291653075	70.46236374587139	-142.95835609010692	221.29466178164108	49.19170215824446
742	3.705	-126.55409040195669	640.8649573073016	310.4041027352561	-326.9386440378776	461.84342097161823	70.58218163573903	-143.63205879804934	221.36308675126764	49.62752219522284
743	3.71	-126.51544253995532	640.9474873630901	310.43840853165176	-327.12134690906737	461.9885204461765	70.70043454720664	-144.3004784017632	221.43084292839723	50.05918073183496
744	3.715	-126.47739067394055	641.0290141956311	310.47231251380646	-327.30192391176234	462.13247664598254	70.81694200446951	-144.96245022607064	221.49778490305124	50.48594073308327
745	3.72	-126.43999038021377	641.1094362046889	310.5057578343204	-327.48005789744866	462.2750267584517	70.93152910749315	-145.61682612139836	221.56377052414712	50.90708210275213
746	3.725	-126.40329532247988	641.1886517278867	310.53868917619656	-327.6554407525523	462.4159111443904	71.0440271621077	-146.2624794314112	221.62866180176337	51.321904320360744
747	3.73	-126.3673570269522	641.2665595861266	310.571052976408	-327.827774709276	462.55487463079965	71.15427429856905	-146.8983099549567	221.69232577262565	51.729729061700134
748	3.735	-126.33222466396732	641.3430596419479	310.6027976455983	-327.99677362248303	462.691667797058	71.26211607529541	-147.5232488738872	221.75463532293725	52.12990278934619
